<?xml version="1.0" encoding="utf-8"?>
<!-- Generator: Adobe Illustrator 18.1.1, SVG Export Plug-In . SVG Version: 6.00 Build 0)  -->
<svg version="1.1" id="Layer_1" xmlns="http://www.w3.org/2000/svg" xmlns:xlink="http://www.w3.org/1999/xlink" x="0px" y="0px"
	 viewBox="0 0 612 792" enable-background="new 0 0 612 792" xml:space="preserve">
<path fill="#0C8076" d="M153,180h306c84.5,0,153,68.5,153,153v306c0,84.5-68.5,153-153,153H153C68.5,792,0,723.5,0,639V333
	C0,248.5,68.5,180,153,180z"/>
<line fill="none" stroke="#0C8076" stroke-width="60" stroke-miterlimit="10" x1="240.5" y1="506.4" x2="240.5" y2="700.6"/>
<line fill="none" stroke="#FFFFFF" stroke-width="60" stroke-miterlimit="10" x1="227" y1="512.3" x2="227" y2="396.2"/>
<g>
	<g>
		<g>
			<defs>
				<rect id="SVGID_1_" x="14" y="506.5" width="268.5" height="110.1"/>
			</defs>
			<clipPath id="SVGID_2_">
				<use xlink:href="#SVGID_1_"  overflow="visible"/>
			</clipPath>
			<circle clip-path="url(#SVGID_2_)" stroke="#FFFFFF" stroke-width="60" stroke-miterlimit="10" cx="148.3" cy="507.6" r="78.5"/>
		</g>
	</g>
	<circle fill="#0C8076" cx="148.3" cy="508.6" r="48.7"/>
</g>
<line fill="none" stroke="#FFFFFF" stroke-width="60" stroke-miterlimit="10" x1="69.9" y1="512.3" x2="69.9" y2="396.2"/>
<line fill="none" stroke="#0C8076" stroke-width="60" stroke-miterlimit="10" x1="215" y1="506.4" x2="215" y2="700.6"/>
<circle fill="#0C8076" stroke="#FFFFFF" stroke-width="60" stroke-miterlimit="10" cx="462.7" cy="506.4" r="78.5"/>
<circle fill="#FFFFFF" stroke="#0C8076" stroke-width="60" stroke-miterlimit="10" cx="306" cy="507.2" r="90.8"/>
<g>
	<line fill="none" stroke="#FFFFFF" stroke-width="60" stroke-miterlimit="10" x1="227.5" y1="504.4" x2="227.5" y2="688.6"/>
	<circle fill="#0C8076" stroke="#FFFFFF" stroke-width="60" stroke-miterlimit="10" cx="306" cy="507.2" r="78.5"/>
</g>
<line fill="none" stroke="#FFFFFF" stroke-width="59.5" stroke-miterlimit="10" x1="541.2" y1="514.8" x2="541.2" y2="322.7"/>
</svg>
