<?xml version="1.0" encoding="utf-8"?>
<!-- Generator: Adobe Illustrator 18.1.1, SVG Export Plug-In . SVG Version: 6.00 Build 0)  -->
<svg version="1.1" id="Layer_1" xmlns="http://www.w3.org/2000/svg" xmlns:xlink="http://www.w3.org/1999/xlink" x="0px" y="0px"
	 viewBox="0 0 612 792" enable-background="new 0 0 612 792" xml:space="preserve">
<path fill="#0C8076" d="M153,90h306c84.5,0,153,68.5,153,153v306c0,84.5-68.5,153-153,153H153C68.5,702,0,633.5,0,549V243
	C0,158.5,68.5,90,153,90z"/>
<text transform="matrix(1 0 0 1 -1299.2731 458.1011)" fill="#FFFFFF" font-family="'Arial-BoldMT'" font-size="260.1" letter-spacing="-6">upd</text>
<line fill="none" stroke="#0C8076" stroke-width="60" stroke-miterlimit="10" x1="240.5" y1="416.4" x2="240.5" y2="610.6"/>
<line fill="none" stroke="#FFFFFF" stroke-width="60" stroke-miterlimit="10" x1="227" y1="422.3" x2="227" y2="306.2"/>
<g>
	<g>
		<g>
			<defs>
				<rect id="SVGID_1_" x="14" y="416.5" width="268.5" height="110.1"/>
			</defs>
			<clipPath id="SVGID_2_">
				<use xlink:href="#SVGID_1_"  overflow="visible"/>
			</clipPath>
			<circle clip-path="url(#SVGID_2_)" stroke="#FFFFFF" stroke-width="60" stroke-miterlimit="10" cx="148.3" cy="417.6" r="78.5"/>
		</g>
	</g>
	<circle fill="#0C8076" cx="148.3" cy="418.6" r="48.7"/>
</g>
<line fill="none" stroke="#FFFFFF" stroke-width="60" stroke-miterlimit="10" x1="69.9" y1="422.3" x2="69.9" y2="306.2"/>
<line fill="none" stroke="#0C8076" stroke-width="60" stroke-miterlimit="10" x1="215" y1="416.4" x2="215" y2="610.6"/>
<circle fill="#0C8076" stroke="#FFFFFF" stroke-width="60" stroke-miterlimit="10" cx="462.7" cy="416.4" r="78.5"/>
<circle fill="#FFFFFF" stroke="#0C8076" stroke-width="60" stroke-miterlimit="10" cx="306" cy="417.2" r="90.8"/>
<g>
	<line fill="none" stroke="#FFFFFF" stroke-width="60" stroke-miterlimit="10" x1="227.5" y1="414.4" x2="227.5" y2="598.6"/>
	<circle fill="#0C8076" stroke="#FFFFFF" stroke-width="60" stroke-miterlimit="10" cx="306" cy="417.2" r="78.5"/>
</g>
<line fill="none" stroke="#FFFFFF" stroke-width="59.5" stroke-miterlimit="10" x1="541.2" y1="424.8" x2="541.2" y2="232.7"/>
<g>
	<line fill="none" stroke="#0C8076" stroke-width="60" stroke-miterlimit="10" x1="-543.5" y1="-92.5" x2="-543.5" y2="101.7"/>
	<line fill="none" stroke="#FFFFFF" stroke-width="60" stroke-miterlimit="10" x1="-557" y1="-86.6" x2="-557" y2="-202.7"/>
	<g>
		<g>
			<g>
				<defs>
					<rect id="SVGID_3_" x="-770" y="-92.4" width="268.5" height="110.1"/>
				</defs>
				<clipPath id="SVGID_4_">
					<use xlink:href="#SVGID_3_"  overflow="visible"/>
				</clipPath>
				
					<circle clip-path="url(#SVGID_4_)" stroke="#FFFFFF" stroke-width="60" stroke-miterlimit="10" cx="-635.7" cy="-91.3" r="78.5"/>
			</g>
		</g>
		<circle fill="#0C8076" cx="-635.7" cy="-90.3" r="48.7"/>
	</g>
	<line fill="none" stroke="#FFFFFF" stroke-width="60" stroke-miterlimit="10" x1="-714.1" y1="-86.6" x2="-714.1" y2="-202.7"/>
	<line fill="none" stroke="#0C8076" stroke-width="60" stroke-miterlimit="10" x1="-569" y1="-92.5" x2="-569" y2="101.7"/>
	<circle fill="#0C8076" stroke="#FFFFFF" stroke-width="60" stroke-miterlimit="10" cx="-321.3" cy="-92.5" r="78.5"/>
	<circle fill="#FFFFFF" stroke="#0C8076" stroke-width="60" stroke-miterlimit="10" cx="-478" cy="-91.7" r="90.8"/>
	<g>
		<line fill="none" stroke="#FFFFFF" stroke-width="60" stroke-miterlimit="10" x1="-556.5" y1="-94.5" x2="-556.5" y2="89.7"/>
		<circle fill="#0C8076" stroke="#FFFFFF" stroke-width="60" stroke-miterlimit="10" cx="-478" cy="-91.7" r="78.5"/>
	</g>
	<line fill="none" stroke="#FFFFFF" stroke-width="59.5" stroke-miterlimit="10" x1="-242.8" y1="-84.1" x2="-242.8" y2="-276.2"/>
</g>
</svg>
