<svg version="1.1" xmlns="http://www.w3.org/2000/svg" xmlns:xlink="http://www.w3.org/1999/xlink" viewBox="0 90 612 612" xml:space="preserve">
<path fill="#15613F" d="M153,90h306c84.5,0,153,68.5,153,153v306c0,84.5-68.5,153-153,153H153C68.5,702,0,633.5,0,549V243
	C0,158.5,68.5,90,153,90z"/>
<line fill="none" stroke="#15613F" stroke-width="60" stroke-miterlimit="10" x1="240.5" y1="416.4" x2="240.5" y2="610.6"/>
<line fill="none" stroke="#FFFFFF" stroke-width="60" stroke-miterlimit="10" x1="227" y1="422.3" x2="227" y2="306.2"/>
<g>
	<g>
		<defs>
			<rect id="SVGID_1_" x="14" y="416.5" width="268.5" height="110.1"/>
		</defs>
		<clipPath id="SVGID_2_">
			<use xlink:href="#SVGID_1_"  overflow="visible"/>
		</clipPath>
		<circle clip-path="url(#SVGID_2_)" stroke="#FFFFFF" stroke-width="60" stroke-miterlimit="10" cx="148.3" cy="417.6" r="78.5"/>
	</g>
	<circle fill="#15613F" cx="148.3" cy="418.6" r="48.7"/>
</g>
<line fill="none" stroke="#FFFFFF" stroke-width="60" stroke-miterlimit="10" x1="69.9" y1="422.3" x2="69.9" y2="306.2"/>
<line fill="none" stroke="#15613F" stroke-width="60" stroke-miterlimit="10" x1="215" y1="416.4" x2="215" y2="610.6"/>
<circle fill="#15613F" stroke="#FFFFFF" stroke-width="60" stroke-miterlimit="10" cx="462.7" cy="416.4" r="78.5"/>
<circle fill="#FFFFFF" stroke="#15613F" stroke-width="60" stroke-miterlimit="10" cx="306" cy="417.2" r="90.8"/>
<g>
	<line fill="none" stroke="#FFFFFF" stroke-width="60" stroke-miterlimit="10" x1="227.5" y1="414.4" x2="227.5" y2="598.6"/>
	<circle fill="#15613F" stroke="#FFFFFF" stroke-width="60" stroke-miterlimit="10" cx="306" cy="417.2" r="78.5"/>
</g>
<line fill="none" stroke="#FFFFFF" stroke-width="59.5" stroke-miterlimit="10" x1="541.2" y1="424.8" x2="541.2" y2="232.7"/>
</svg>
